<svg width="30" height="30" viewBox="0 0 30 30" fill="none" xmlns="http://www.w3.org/2000/svg">
<g clip-path="url(#clip0_3218_244)">
<path d="M4.42412 0C2.70568 0 2.07568 0.634688 2.07568 2.34844V23.0512C2.07568 23.2472 2.086 23.4272 2.101 23.5941C2.14506 23.97 2.14506 24.3366 2.49568 24.7462C2.52943 24.795 2.88193 25.0538 2.88193 25.0538C3.07225 25.1466 3.2035 25.215 3.41818 25.3022L13.8385 29.6672C14.3757 29.9119 14.6063 30.015 14.9963 30H15.001C15.3957 30.015 15.6263 29.9128 16.1635 29.6672L26.5782 25.3022C26.7985 25.215 26.9241 25.1456 27.1191 25.0538C27.1191 25.0538 27.4716 24.7847 27.5054 24.7462C27.8569 24.3366 27.8569 23.97 27.9001 23.5941C27.9151 23.4281 27.9254 23.2481 27.9254 23.0569V2.34938C27.9254 0.635625 27.2907 0.0009375 25.5769 0.0009375L4.42412 0ZM21.1191 3.88594H21.9676C23.3841 3.88594 24.0779 4.575 24.0779 6.01125V8.35969H22.3594V6.10313C22.3594 5.64469 22.1494 5.43469 21.7041 5.43469H21.4116C20.9532 5.43469 20.7432 5.64469 20.7432 6.10313V13.3678C20.7432 13.8262 20.9532 14.0363 21.4116 14.0363H21.7388C22.1776 14.0363 22.3876 13.8262 22.3876 13.3678V10.77H24.106V13.4512C24.106 14.8809 23.4038 15.585 21.9826 15.585H21.1191C19.6932 15.585 18.9938 14.8762 18.9938 13.4512V6.02344C18.9938 4.59375 19.6922 3.885 21.1191 3.885V3.88594ZM5.88381 3.98531H9.77537V5.58187H7.63131V8.83312H9.69756V10.4259H7.63131V13.8919H9.80537V15.4894H5.88381V3.98531ZM10.6538 3.98531H13.3988C14.8191 3.98531 15.5222 4.69313 15.5222 6.12281V9.18C15.5222 10.6097 14.8182 11.3137 13.3988 11.3137H12.4079V15.4884H10.6538V3.98531ZM16.3135 3.98531H18.061V15.4894H16.3135V3.98531ZM12.4022 5.53219V9.76969H13.1251C13.5647 9.76969 13.7747 9.55594 13.7747 9.09562V6.20531C13.7747 5.74687 13.5647 5.53125 13.1251 5.53125L12.4022 5.53219ZM7.58256 18.2222H7.84131L7.90037 18.2325H7.99412L8.04287 18.2475H8.09162L8.13568 18.2616L8.18443 18.2719L8.22287 18.2822L8.31006 18.3019L8.35975 18.3159L8.3935 18.3263L8.43193 18.3412L8.48068 18.3562L8.51443 18.3703L8.56412 18.39L8.60818 18.4097L8.64662 18.4331L8.69068 18.4528L8.72443 18.4763L8.77412 18.5016L8.81256 18.525L8.851 18.5447L8.88943 18.5738L8.92975 18.5991L8.9635 18.6281L9.08068 18.7172L9.05068 18.7556L9.01693 18.7894L8.98693 18.8241L8.95318 18.8625L8.92975 18.8963L8.89975 18.9309L8.866 18.9647L8.836 19.0031L8.81256 19.0369L8.77787 19.0772L8.74881 19.1109L8.71506 19.1494L8.68506 19.1841L8.66162 19.2225L8.62693 19.2563L8.59787 19.2966L8.56412 19.3303L8.53412 19.3641L8.50037 19.3406L8.46193 19.3059L8.42162 19.2825L8.34943 19.2338L8.30537 19.2084L8.26506 19.185L8.221 19.1597L8.18725 19.14L8.14881 19.1212L8.07006 19.0913L8.02131 19.0828L7.98287 19.0725L7.93881 19.0622L7.88912 19.0519L7.84037 19.0472H7.79162L7.73443 19.0369H7.64068L7.59193 19.0416H7.54318L7.49443 19.0566L7.456 19.0669L7.41193 19.0819L7.36787 19.0903L7.32756 19.11L7.27881 19.1297L7.21131 19.1784L7.171 19.2019L7.13725 19.2319L7.1035 19.2553L7.06881 19.2853L7.04537 19.3191L7.00506 19.3528L6.95631 19.4212L6.93287 19.4597L6.91318 19.5038L6.88975 19.5384L6.86443 19.5825L6.84943 19.6266L6.83068 19.665L6.81568 19.7137L6.811 19.7625L6.79693 19.8075L6.78662 19.8563V19.905L6.78193 19.9538V20.0662L6.78662 20.115V20.1534L6.79131 20.2022L6.79975 20.2463L6.81475 20.2847L6.81943 20.3344L6.83443 20.3728L6.8485 20.4066L6.86818 20.4553L6.8935 20.5041L6.91225 20.5388L6.961 20.6166L6.991 20.655L7.01443 20.6897L7.05475 20.7188L7.07818 20.7525L7.11193 20.7825L7.19068 20.8416L7.22443 20.8603L7.26287 20.8856L7.30787 20.9053L7.35662 20.9241L7.39037 20.9438L7.48787 20.9728L7.53193 20.9775L7.58068 20.9925L7.62943 20.9972H7.83943L7.8985 20.9925H7.94256L7.99225 20.9728L8.041 20.9681L8.08975 20.9541L8.12818 20.9438L8.17225 20.9241L8.21068 20.9053L8.25475 20.8856L8.28475 20.8659L8.32318 20.8425V20.4075H7.63412V19.71H9.19131V21.2728L9.15756 21.2962L9.12381 21.3253L9.08912 21.3506L9.05068 21.3797L9.01225 21.3994L8.9785 21.4294L8.89975 21.4781L8.851 21.5016L8.77318 21.5503L8.7235 21.57L8.68506 21.5887L8.641 21.6084L8.5435 21.6469L8.50506 21.6666L8.416 21.6956L8.37193 21.7059L8.32787 21.7209L8.27912 21.7359L8.24068 21.7444L8.09443 21.7744L8.04943 21.7791L7.95193 21.7894L7.8985 21.7941L7.84975 21.7978L7.79631 21.8025H7.55256L7.50381 21.7941H7.45506L7.40631 21.7838H7.36225L7.3135 21.7687L7.171 21.7397L7.13256 21.7247L7.0885 21.72L7.03975 21.7003L6.95068 21.6712L6.8635 21.6328L6.81475 21.6131L6.781 21.5934L6.73225 21.5747L6.69756 21.5447L6.64881 21.5259L6.61975 21.5006L6.58131 21.4772L6.50256 21.4181L6.46412 21.3928L6.43412 21.3638L6.39568 21.3338L6.33193 21.2709L6.29818 21.2409L6.26912 21.2072L6.23443 21.1725L6.211 21.1341L6.181 21.105L6.15756 21.0647L6.12756 21.0262L6.10412 20.9925L6.07881 20.9541L6.05537 20.9091L6.03568 20.8706L6.016 20.8266L5.99725 20.7881L5.95881 20.6991L5.94381 20.6653L5.92412 20.6213L5.91381 20.5772L5.90537 20.5388L5.89506 20.49L5.88006 20.445L5.86975 20.3963L5.86506 20.3578L5.85662 20.3091L5.84631 20.2219L5.836 20.1244V19.8656L5.84631 19.8159V19.7672L5.86131 19.7184V19.6697L5.87537 19.6256L5.89037 19.5769L5.91006 19.4897L5.92412 19.4409L5.93912 19.3969L5.99818 19.2647L6.01693 19.2262L6.03662 19.1822L6.06193 19.1372L6.08068 19.0987L6.106 19.065L6.15475 18.9863L6.18381 18.9478L6.21381 18.9141L6.23725 18.8756L6.301 18.8119L6.33006 18.7772L6.36475 18.7434L6.39381 18.7097L6.43412 18.6797L6.50162 18.6206L6.54006 18.5916L6.58037 18.5663L6.61412 18.5372L6.65256 18.5119L6.69287 18.4931L6.73693 18.4678L6.78568 18.4444L6.81943 18.4191L6.86818 18.4003L6.91225 18.3806L6.95631 18.3572L6.99662 18.3469L7.04537 18.3319L7.08381 18.3122L7.12787 18.3038L7.17193 18.2887L7.22068 18.2784L7.261 18.2634L7.30975 18.2531H7.3585L7.40256 18.2391H7.45131L7.50006 18.2288H7.54412L7.58256 18.2222ZM22.5685 18.2325H22.8272L22.8863 18.2428H22.9791L23.0279 18.2569H23.0813L23.1301 18.2719L23.2172 18.2916L23.266 18.3019L23.3101 18.3103L23.3597 18.3253L23.4038 18.3403L23.4422 18.3506L23.4863 18.3647L23.5351 18.3797L23.5735 18.3994L23.6222 18.4181L23.6672 18.4378L23.7113 18.4631L23.7451 18.4819L23.7891 18.5072L23.8332 18.5259L23.8735 18.5513L23.9176 18.5803L23.9513 18.6056L24.0301 18.6647L24.0685 18.6881L24.0385 18.7266L24.0151 18.7669L23.986 18.8006L23.956 18.8391L23.9326 18.8831L23.9072 18.9234L23.8782 18.9572L23.8482 18.9956L23.8247 19.0359L23.7947 19.0744L23.7713 19.1081L23.7413 19.1466L23.7179 19.1916L23.6879 19.23L23.6588 19.2638L23.6288 19.3022L23.6054 19.3425L23.5669 19.3125L23.5219 19.2891L23.4882 19.2638L23.4497 19.2403L23.4057 19.2206L23.3654 19.1953L23.3213 19.1766L23.2876 19.1569L23.2388 19.1381L23.2041 19.1184L23.1657 19.1034L23.0785 19.0744L22.981 19.0444L22.8347 19.0153L22.786 19.0106L22.6969 19.0003H22.5947L22.5413 19.0106L22.4926 19.0209L22.4485 19.0312L22.4101 19.05L22.3754 19.0697L22.3369 19.1034L22.3079 19.1475L22.2882 19.1925V19.3088L22.3135 19.3622L22.3322 19.3922L22.3622 19.4212L22.411 19.4466L22.4494 19.47L22.4935 19.4897L22.5422 19.5084L22.606 19.5234L22.6397 19.5384L22.6801 19.5487L22.7288 19.5591L22.7672 19.5731L22.8113 19.5834L22.8647 19.5984L22.9135 19.6134L22.9669 19.6275L23.0204 19.6378L23.0644 19.6528L23.1179 19.6669L23.1666 19.6772L23.2107 19.6875L23.3579 19.7316L23.3963 19.7466L23.4451 19.7616L23.4891 19.7803L23.5379 19.8056L23.6354 19.8441L23.6794 19.8694L23.7582 19.9181L23.8304 19.9716L23.8754 20.0006L23.9091 20.0344L23.9429 20.0747L23.9776 20.1084L24.001 20.1422L24.0357 20.1909L24.0591 20.2256L24.0788 20.2744L24.0976 20.3034L24.1126 20.3522L24.1276 20.3925L24.1379 20.4366L24.1566 20.5341L24.1613 20.5828L24.166 20.6269V20.7441L24.1613 20.7975L24.151 20.895L24.1407 20.9438L24.1266 20.9878L24.1163 21.0366L24.1013 21.0853L24.0872 21.1294L24.0676 21.1641L24.0479 21.2081L24.0244 21.2466L23.9944 21.2813L23.9457 21.3591L23.8866 21.4275L23.8529 21.4509L23.8144 21.4856L23.7844 21.5147L23.746 21.5437L23.7076 21.5634L23.6691 21.5934L23.6241 21.6169L23.5369 21.6609L23.4882 21.6806L23.4441 21.6994L23.3954 21.7144L23.3513 21.7294L23.311 21.7397L23.2135 21.7584L23.1797 21.7687L23.131 21.7791H23.0822L23.0382 21.7894H22.9894L22.9407 21.7997H22.5929L22.4466 21.7847L22.3979 21.7744L22.3538 21.7697L22.2563 21.7509L22.2029 21.7406L22.1588 21.7303L22.1101 21.7153L22.0604 21.705L22.0163 21.6909L21.9676 21.6759L21.9188 21.6563L21.8804 21.6422L21.8316 21.6272L21.7829 21.6075L21.7482 21.5887L21.6994 21.5737L21.661 21.5484L21.6122 21.5297L21.5738 21.5044L21.5391 21.4809L21.4904 21.4556L21.4566 21.4369L21.4182 21.4069L21.3797 21.3834L21.3394 21.3534L21.3057 21.3244L21.2672 21.2944L21.2326 21.2709L21.1941 21.2363L21.2241 21.1978L21.2579 21.1641L21.2869 21.1294L21.3216 21.0909L21.3451 21.0572L21.3751 21.0188L21.4088 20.9841L21.4379 20.9503L21.4726 20.9119L21.496 20.8772L21.5307 20.8434L21.5597 20.805L21.5897 20.7703L21.6235 20.7319L21.6469 20.6981L21.6816 20.6634L21.7154 20.625L21.7491 20.655L21.7941 20.6841L21.8279 20.7131L21.8766 20.7384L21.9104 20.7638L21.9544 20.7928L21.9947 20.8181L22.0388 20.8369L22.0726 20.8622L22.1166 20.8762L22.1654 20.8959L22.2057 20.9156L22.2497 20.9297L22.2882 20.9494L22.3369 20.9644L22.381 20.9784L22.4297 20.9934L22.4785 20.9981L22.5235 21.0131L22.5722 21.0178H22.6257L22.6697 21.0319H22.9332L22.9772 21.0234L23.026 21.0131L23.0597 21.0084L23.1001 20.9934L23.1338 20.9747L23.1779 20.9447L23.2032 20.9109L23.2219 20.8725L23.2369 20.8275V20.715L23.2172 20.6709L23.1938 20.6325L23.1638 20.6034L23.1197 20.5734L23.086 20.5594L23.0419 20.5397L22.9932 20.52L22.9397 20.4966L22.9051 20.4862L22.8666 20.4759L22.8179 20.4609L22.7841 20.4525L22.7354 20.4375L22.6866 20.4328L22.6369 20.4131L22.5882 20.4084L22.5347 20.3944L22.4907 20.3841L22.4419 20.3691L22.3932 20.3587L22.3444 20.3447L22.3004 20.3297L22.2516 20.3194L22.2132 20.3044L22.1241 20.2753L22.0754 20.2556L22.0266 20.2416L21.9291 20.2013L21.8851 20.1778L21.8363 20.1525L21.8026 20.1291L21.7576 20.1038L21.7238 20.0803L21.6797 20.055L21.616 19.9912L21.5822 19.9622L21.5232 19.8937L21.4979 19.86L21.4791 19.8263L21.4491 19.7813L21.4351 19.7475L21.3901 19.6303L21.3816 19.5816L21.3713 19.5375V19.4934L21.361 19.4447V19.245L21.3713 19.1475L21.3816 19.1072L21.3901 19.0631L21.4051 19.0247L21.4154 18.9759L21.4351 18.9422L21.4538 18.8925L21.4735 18.8541L21.4922 18.8053L21.5176 18.7716L21.5513 18.7331L21.5766 18.6928L21.6151 18.6591L21.6441 18.6253L21.6741 18.585L21.7182 18.5513L21.7482 18.5259L21.7866 18.4969L21.8644 18.4481L21.9085 18.4228L21.9976 18.3788L22.036 18.3647L22.0801 18.3497L22.1288 18.33L22.1776 18.3159L22.2122 18.3056L22.2563 18.2953L22.2947 18.285L22.3388 18.2747L22.3876 18.2644L22.4851 18.2559L22.5301 18.2513L22.5685 18.2325ZM11.0204 18.2662H11.9044L11.9447 18.3553L11.9635 18.3938L11.9785 18.4425L11.9982 18.4866L12.0122 18.525L12.0376 18.5691L12.0666 18.6581L12.0919 18.7022L12.1304 18.7894L12.1407 18.8278L12.2185 19.0041L12.2335 19.0481L12.2532 19.0884L12.2766 19.1325L12.2869 19.1766L12.3122 19.2253L12.3207 19.2694L12.3657 19.3566L12.3844 19.3913L12.4041 19.44L12.4191 19.4888L12.4332 19.5225L12.4585 19.5712L12.4735 19.6116L12.4922 19.6603L12.5072 19.6941L12.5269 19.7428L12.571 19.83L12.5851 19.8741L12.5954 19.9191L12.6151 19.9631L12.6385 20.0016L12.6582 20.0503L12.6779 20.0944L12.6919 20.1328L12.7322 20.2219L12.7463 20.2659L12.766 20.31L12.781 20.3541L12.7997 20.3925L12.8251 20.4375L12.8438 20.4816L12.8635 20.52L12.8738 20.5688L12.9122 20.6559L12.9319 20.6963L12.946 20.7403L12.9863 20.8275L13.0097 20.8762L13.0201 20.9147L13.0454 20.9644L13.0538 20.9981L13.0735 21.0469L13.0988 21.0956L13.1176 21.1294L13.1326 21.1781L13.1522 21.2184L13.1663 21.2672L13.1916 21.3009L13.2207 21.3984L13.2404 21.4331L13.2591 21.4819L13.2844 21.5203L13.3041 21.5691L13.3126 21.6131L13.3276 21.6516L13.3472 21.6956L13.3707 21.7359H12.3947L12.3713 21.6956L12.3563 21.6516L12.3366 21.6075L12.3179 21.5588L12.3076 21.5203L12.2672 21.4331L12.2532 21.3928L12.2147 21.3056L12.1997 21.2672L12.1801 21.2184L12.151 21.1294L12.1313 21.0909H10.7738L10.7551 21.135L10.7401 21.1753L10.7204 21.2241L10.7016 21.2681L10.6913 21.3066L10.6716 21.3553L10.6529 21.3937L10.6379 21.4378L10.6182 21.4781L10.5994 21.5269L10.5844 21.5606L10.5647 21.6094L10.5507 21.6581L10.531 21.6928L10.516 21.7416H9.54943L9.5635 21.6966L9.60381 21.6094L9.61787 21.5606L9.63287 21.5222L9.65818 21.4781L9.67693 21.4341L9.69662 21.3937L9.70693 21.3497L9.72568 21.3009L9.751 21.2625L9.76975 21.2184L9.79975 21.1294L9.84381 21.0422L9.85881 20.9981L9.87756 20.9597L9.89256 20.9147L9.95162 20.7834L9.97131 20.7347L9.98537 20.6963L10.0004 20.6522L10.0257 20.6119L10.0444 20.5631L10.0594 20.5191L10.0744 20.4806L10.0932 20.4319L10.1185 20.3972L10.1335 20.3484L10.1522 20.31L10.1672 20.2659L10.1869 20.2172L10.2104 20.1788L10.2254 20.13L10.2441 20.0953L10.2591 20.0466L10.2788 19.9978L10.2976 19.9641L10.3172 19.9153L10.3322 19.875L10.351 19.8263L10.366 19.7925L10.3913 19.7437L10.4101 19.695L10.4297 19.6566L10.4401 19.6125L10.4588 19.5675L10.4841 19.5234L10.5029 19.485L10.5132 19.4363L10.5329 19.3922L10.5526 19.3519L10.591 19.2647L10.6051 19.2262L10.6454 19.1287L10.6641 19.0941L10.6838 19.0453L10.6988 19.0069L10.7129 18.9581L10.7326 18.9141L10.7579 18.8756L10.7766 18.8269L10.7916 18.7922L10.8066 18.7434L10.8254 18.705L10.8507 18.6609L10.8657 18.6122L10.8797 18.5719L10.8994 18.5231L10.9182 18.4894L10.9435 18.4406L10.9585 18.3919L10.9726 18.3581L10.9922 18.3094L11.0204 18.2662ZM13.7654 18.2916H14.7319L14.7619 18.33L14.8107 18.4087L14.8341 18.4528L14.8594 18.4866L14.8829 18.5306L14.9082 18.5691L14.9316 18.6141L14.9569 18.6525L14.9804 18.6862L15.0057 18.7303L15.0291 18.7706L15.0638 18.8091L15.0779 18.8475L15.1079 18.8916L15.1313 18.9319L15.1613 18.9656L15.181 19.0097L15.2044 19.0481L15.2344 19.0884L15.2485 19.1269L15.2832 19.1709L15.3554 19.2881L15.3751 19.3266L15.4041 19.365L15.4294 19.4034L15.4529 19.4484L15.5269 19.5647L15.5504 19.6097L15.5757 19.6481L15.6047 19.6097L15.6244 19.56L15.6535 19.5262L15.6788 19.4822L15.7022 19.4484L15.7219 19.3997L15.7557 19.365L15.781 19.3209L15.8007 19.2872L15.8241 19.2469L15.8541 19.2028L15.8776 19.1691L15.9029 19.1203L15.9263 19.0866L15.9563 19.0416L15.9751 19.0078L16.0004 18.9591L16.0238 18.93L16.0491 18.8897L16.0782 18.8409L16.1035 18.8072L16.1222 18.7631L16.1522 18.7284L16.1757 18.6797L16.201 18.6506L16.2301 18.6122L16.2554 18.5634L16.2788 18.5287L16.3041 18.4847L16.3276 18.4509L16.3529 18.4022L16.3819 18.3675L16.4016 18.3234L16.4269 18.2897H17.4085V21.7763H16.4897V19.725L16.4663 19.7597L16.4363 19.8084L16.4129 19.8375L16.3829 19.8759L16.3641 19.9247L16.3341 19.9594L16.3107 19.9931L16.2807 20.0419L16.2319 20.1103L16.2029 20.1488L16.1776 20.1975L16.1485 20.2322L16.1232 20.2659L16.1044 20.3147L16.0744 20.3484L16.051 20.3831L16.021 20.4319L15.9976 20.4656L15.9676 20.5041L15.9441 20.5481L15.9244 20.5828L15.8954 20.6213L15.8701 20.6653L15.841 20.6991L15.811 20.7394L15.7922 20.7778L15.7669 20.8219L15.7379 20.8566L15.7079 20.895L15.6891 20.9438L15.6544 20.9728L15.6357 21.0113L15.6057 21.0609L15.5822 21.0947H15.5626L15.5335 21.0506L15.5082 21.0103L15.4847 20.9663L15.4594 20.9325L15.4304 20.8884L15.4051 20.85L15.376 20.8097L15.3507 20.7713L15.3272 20.7272L15.3019 20.6934L15.2682 20.6484L15.2485 20.61L15.2194 20.5659L15.1941 20.5322L15.1707 20.4881L15.1407 20.4478L15.1172 20.3991L15.0872 20.3653L15.0638 20.3213L15.0385 20.2809L15.0151 20.2369L14.9851 20.2031L14.9616 20.1591L14.9316 20.1206L14.9129 20.0803L14.8829 20.0419L14.8594 19.9978L14.8294 19.9641L14.806 19.9191L14.776 19.8806L14.7572 19.8366L14.7226 19.8028L14.7038 19.7578L14.6738 19.7194V21.7753H13.771V18.3225L13.7654 18.2916ZM18.1004 18.2916H20.8501V19.0781H19.0135V19.6397H20.6635V20.3822H19.0135V20.9775H20.8735V21.7687H18.1051V18.3216L18.1004 18.2916ZM11.4497 19.3603L11.4347 19.4044L11.4207 19.4447L11.401 19.4934L11.3813 19.5375L11.3672 19.5816L11.3269 19.6687L11.3082 19.7175L11.2932 19.7578L11.2782 19.8066L11.2594 19.8403L11.2444 19.8891L11.2247 19.9378L11.206 19.9725L11.191 20.0213L11.1722 20.0597L11.1572 20.1084L11.1319 20.1525L11.1216 20.1909L11.1029 20.2397L11.0832 20.2847L11.0682 20.3231L11.0494 20.3719H11.8547L11.836 20.3231L11.821 20.2791L11.7826 20.19L11.7676 20.1459L11.7479 20.1075L11.7338 20.0587L11.7141 20.0147L11.6991 19.9706L11.6804 19.9303L11.6654 19.8862L11.6457 19.8375L11.6316 19.7991L11.5913 19.7119L11.5829 19.6669L11.5632 19.6228L11.5435 19.5741L11.5294 19.5403L11.4891 19.4428L11.4751 19.3987L11.4497 19.3603ZM10.0154 25.8891H20.0288L14.9176 27.5738L10.0154 25.8891Z" fill="black"/>
</g>
<defs>
<clipPath id="clip0_3218_244">
<rect width="30" height="30" fill="white"/>
</clipPath>
</defs>
</svg>
