<svg width="50" height="50" viewBox="0 0 50 50" fill="none" xmlns="http://www.w3.org/2000/svg">
<path d="M7.79171 5.72917C7.23917 5.72917 6.70927 5.94867 6.31857 6.33937C5.92787 6.73007 5.70837 7.25997 5.70837 7.81251V42.1875C5.70837 42.74 5.92787 43.2699 6.31857 43.6606C6.70927 44.0513 7.23917 44.2708 7.79171 44.2708H42.2084C42.7609 44.2708 43.2908 44.0513 43.6815 43.6606C44.0722 43.2699 44.2917 42.74 44.2917 42.1875V7.81251C44.2917 7.25997 44.0722 6.73007 43.6815 6.33937C43.2908 5.94867 42.7609 5.72917 42.2084 5.72917H7.79171Z" stroke="white" stroke-linecap="round" stroke-linejoin="round"/>
<path d="M34.85 36.85V28.1333H37.7041C38.4804 28.1333 39.225 28.4417 39.7739 28.9907C40.3228 29.5396 40.6312 30.2841 40.6312 31.0604C40.6312 31.8367 40.3228 32.5812 39.7739 33.1302C39.225 33.6791 38.4804 33.9875 37.7041 33.9875H34.85V36.85ZM37.7041 33.9885L40.5572 36.8479L37.7041 33.9885ZM18.075 28.1333H23.85H18.075ZM20.9625 36.85V28.1333V36.85ZM10.5895 35.8948C10.8369 36.2205 11.1623 36.4786 11.5356 36.6456C11.909 36.8125 12.3183 36.8828 12.726 36.85H14.0177C14.5949 36.8492 15.1481 36.6191 15.5558 36.2105C15.9635 35.8019 16.1922 35.248 16.1916 34.6708C16.1919 34.3849 16.1359 34.1018 16.0267 33.8375C15.9175 33.5733 15.7574 33.3331 15.5554 33.1308C15.3535 32.9284 15.1136 32.7678 14.8496 32.6582C14.5856 32.5485 14.3025 32.4919 14.0166 32.4917H12.5916C12.3057 32.4914 12.0227 32.4348 11.7587 32.3251C11.4946 32.2155 11.2548 32.0549 11.0528 31.8525C10.8508 31.6502 10.6907 31.41 10.5816 31.1458C10.4724 30.8815 10.4164 30.5984 10.4166 30.3125V30.3125C10.4164 30.0266 10.4724 29.7434 10.5816 29.4792C10.6907 29.215 10.8508 28.9748 11.0528 28.7725C11.2548 28.5701 11.4946 28.4095 11.7587 28.2999C12.0227 28.1902 12.3057 28.1336 12.5916 28.1333H13.8823C14.2899 28.1005 14.6993 28.1708 15.0726 28.3378C15.446 28.5047 15.7713 28.7629 16.0187 29.0885L10.5895 35.8948ZM28.1791 28.125L29.2625 31.4573H32.7666L29.9312 33.5177L31.0145 36.85L28.1791 34.7906L25.3447 36.85L26.427 33.5177L23.5916 31.4573H27.0968L28.1791 28.125V28.125Z" stroke="white" stroke-linecap="round" stroke-linejoin="round"/>
<path d="M17.7083 15.3125C17.7083 15.7151 17.3818 16.0417 16.9791 16.0417H11.875V18.9583H15.5208C15.9234 18.9583 16.25 19.2846 16.25 19.667C16.25 20.0493 15.9234 20.3962 15.5208 20.3962H11.875V24.042C11.875 24.4446 11.5484 24.7712 11.1458 24.7712C10.7432 24.7712 10.4166 24.4446 10.4166 24.042V15.292C10.4166 14.9099 10.7432 14.5833 11.1458 14.5833H16.9791C17.3824 14.5833 17.7083 14.9099 17.7083 15.3125V15.3125Z" fill="white"/>
<path d="M37.2072 14.5833C35.2588 14.5833 33.3334 15.8816 33.3334 17.9839C33.3334 19.3206 34.0848 20.0805 34.5407 20.0805C34.7288 20.0805 34.8378 19.5562 34.8378 19.4081C34.8378 19.2316 34.3872 18.8555 34.3872 18.1206C34.3872 16.5939 35.5493 15.5121 37.0533 15.5121C38.3466 15.5121 39.3037 16.2466 39.3037 17.5967C39.3037 18.6049 38.8988 20.4957 37.5883 20.4957C37.1158 20.4957 36.7117 20.1542 36.7117 19.6645C36.7117 18.9468 37.1711 18.2518 37.1711 17.5111C37.1711 16.2539 35.4299 16.4818 35.4299 18.0012C35.4299 18.3201 35.4698 18.6732 35.6122 18.9637C35.3501 20.092 34.8685 21.8892 34.8685 23.0516C34.8685 23.4105 34.9199 23.7635 34.954 24.1227C35.0185 24.1949 34.9863 24.1876 35.0849 24.1515C36.042 22.8413 35.9534 22.4675 36.3863 20.7528C36.6204 21.1973 37.2241 21.4363 37.7026 21.4363C39.7193 21.4363 40.625 19.4714 40.625 17.6992C40.625 15.8137 38.9959 14.5833 37.2072 14.5833Z" fill="white"/>
<path d="M25 23.6109C25 23.9944 24.6895 24.3053 24.3056 24.3053H19.4444C19.0605 24.3053 18.75 23.9944 18.75 23.6109V15.2776C18.75 14.8943 19.0605 14.5833 19.4444 14.5833C19.8283 14.5833 20.1389 14.8943 20.1389 15.2778V22.9167H24.3056C24.6897 22.9164 25 23.2268 25 23.6109Z" fill="white"/>
<path d="M32.8125 23.3854C32.8125 23.7593 32.5097 24.0625 32.1354 24.0625H26.7187C26.3444 24.0625 26.0416 23.7593 26.0416 23.3854C26.0416 23.0115 26.3444 22.7083 26.7187 22.7083H28.75V15.9375H26.7187C26.3444 15.9375 26.0416 15.6343 26.0416 15.2604C26.0416 14.8865 26.3444 14.5833 26.7187 14.5833H32.1354C32.5097 14.5833 32.8125 14.8865 32.8125 15.2604C32.8125 15.6343 32.5097 15.9375 32.1354 15.9375H30.1041V22.7083H32.1354C32.5099 22.7083 32.8125 23.0109 32.8125 23.3854Z" fill="white"/>
</svg>
