<svg width="30" height="30" viewBox="0 0 30 30" fill="none" xmlns="http://www.w3.org/2000/svg">
<path d="M15 30H14.5022L17.6269 21.6263H21.8747C22.6266 21.6263 23.3737 21.0009 23.6231 20.3766L27.0019 11.2509C27.4997 9.75188 26.6259 8.50219 25.1269 8.50219H19.2478L11.6259 29.625C4.87312 27.9994 0 22.125 0 15.0009C0 8.12625 4.62375 2.37375 11.0006 0.49875L8.12438 8.50125L3.25125 21.6263H6.37594L10.3753 10.4981H12.7481L8.74875 21.6263H11.8734L15.6234 11.25C16.1213 9.75094 15.3741 8.50125 13.7484 8.50125H11.2481L14.3728 0H14.9981C23.25 0 29.9981 6.74812 29.9981 15C29.9981 23.2519 23.25 30 14.9981 30H15ZM24.1256 10.3762H21.7481L18.3741 19.5019H20.7516L24.1256 10.3762Z" fill="white"/>
</svg>
