<svg width="31" height="30" viewBox="0 0 31 30" fill="none" xmlns="http://www.w3.org/2000/svg">
<path d="M15.0066 0C7.11536 0 0.642503 6.07387 0.0310059 13.7939L8.0838 17.1192C8.79028 16.6383 9.62578 16.3814 10.4809 16.3823C10.5589 16.3823 10.6378 16.387 10.7158 16.387L14.2974 11.2112V11.1381C14.2974 8.01819 16.8364 5.4842 19.9624 5.4842C23.0885 5.4842 25.6322 8.02287 25.6322 11.1428C25.6302 12.6425 25.032 14.0801 23.9691 15.1401C22.9061 16.2002 21.4651 16.7959 19.9624 16.7967H19.8356L14.7276 20.4341C14.7276 20.5025 14.7323 20.5662 14.7323 20.6347C14.7323 22.9783 12.8339 24.8777 10.4856 24.8777C8.44074 24.8777 6.70863 23.4124 6.31224 21.47L0.54951 19.0869C2.33516 25.3858 8.12325 30 15.0066 30C23.3036 30 30.031 23.2868 30.031 15.0005C30.031 6.71417 23.3045 0.000937471 15.0066 0.000937471V0ZM9.44393 22.7627L7.59911 22.0006C7.93886 22.705 8.52527 23.2609 9.24761 23.5633C10.0295 23.8864 10.9078 23.8869 11.6901 23.5648C12.4724 23.2427 13.0948 22.6242 13.421 21.8449C13.5828 21.4592 13.6666 21.0453 13.6674 20.6272C13.6682 20.209 13.5861 19.7948 13.4257 19.4085C13.2675 19.0201 13.0333 18.6671 12.7366 18.3703C12.44 18.0734 12.087 17.8387 11.6983 17.6798C10.9494 17.3675 10.109 17.3534 9.35 17.6404L11.2531 18.4269C12.4516 18.9294 13.019 20.3019 12.5202 21.4981C12.0214 22.6943 10.6416 23.2605 9.44299 22.7627H9.44393ZM23.7394 11.1325C23.7384 10.1338 23.3408 9.17631 22.6337 8.46973C21.9267 7.76314 20.9677 7.36513 19.9671 7.3629C18.9654 7.3629 18.0047 7.76005 17.2964 8.46698C16.5881 9.17391 16.1901 10.1327 16.1901 11.1325C16.1901 12.1322 16.5881 13.091 17.2964 13.798C18.0047 14.5049 18.9654 14.902 19.9671 14.902C20.968 14.9005 21.9273 14.5028 22.6346 13.796C23.3418 13.0893 23.7392 12.1313 23.7394 11.1325V11.1325ZM17.1398 11.1278C17.1398 9.56033 18.4069 8.29568 19.9728 8.29568C21.5386 8.29568 22.8152 9.56033 22.8152 11.1278C22.8152 12.6905 21.5386 13.9599 19.9728 13.9599C18.4069 13.9599 17.1398 12.6905 17.1398 11.1278V11.1278Z" fill="black"/>
</svg>
